<mxfile host="drawio-plugin" modified="2022-04-06T23:09:16.463Z" agent="5.0 (Windows NT 6.2; Win64; x64) AppleWebKit/537.36 (KHTML, like Gecko) Chrome/89.0.4389.114 Safari/537.36" etag="bDwrL1NUPzcbkjfXNQtX" version="15.5.4" type="embed"><diagram name="Page-1" id="13e1069c-82ec-6db2-03f1-153e76fe0fe0"><mxGraphModel dx="1308" dy="770" grid="1" gridSize="10" guides="1" tooltips="1" connect="1" arrows="1" fold="1" page="1" pageScale="1" pageWidth="1100" pageHeight="850" background="none" math="0" shadow="0"><root><mxCell id="0"/><mxCell id="1" parent="0"/><mxCell id="7baba1c4bc27f4b0-2" value=":Deck" style="shape=umlLifeline;perimeter=lifelinePerimeter;whiteSpace=wrap;html=1;container=1;collapsible=0;recursiveResize=0;outlineConnect=0;rounded=1;shadow=0;comic=0;labelBackgroundColor=none;strokeWidth=1;fontFamily=Verdana;fontSize=12;align=center;" parent="1" vertex="1"><mxGeometry x="540" y="80" width="120" height="580" as="geometry"/></mxCell><mxCell id="ubbbVKDdpcfssMySZLUJ-17" value="" style="html=1;points=[];perimeter=orthogonalPerimeter;rounded=0;shadow=0;comic=0;labelBackgroundColor=none;strokeWidth=1;fontFamily=Verdana;fontSize=12;align=center;" parent="7baba1c4bc27f4b0-2" vertex="1"><mxGeometry x="55" y="100" width="10" height="50" as="geometry"/></mxCell><mxCell id="7baba1c4bc27f4b0-3" value=":HandCards" style="shape=umlLifeline;perimeter=lifelinePerimeter;whiteSpace=wrap;html=1;container=1;collapsible=0;recursiveResize=0;outlineConnect=0;rounded=1;shadow=0;comic=0;labelBackgroundColor=none;strokeWidth=1;fontFamily=Verdana;fontSize=12;align=center;" parent="1" vertex="1"><mxGeometry x="680" y="80" width="130" height="580" as="geometry"/></mxCell><mxCell id="ubbbVKDdpcfssMySZLUJ-32" value="" style="html=1;points=[];perimeter=orthogonalPerimeter;rounded=0;shadow=0;comic=0;labelBackgroundColor=none;strokeWidth=1;fontFamily=Verdana;fontSize=12;align=center;" parent="7baba1c4bc27f4b0-3" vertex="1"><mxGeometry x="60" y="160" width="10" height="60" as="geometry"/></mxCell><mxCell id="7baba1c4bc27f4b0-4" value=":FloorCards" style="shape=umlLifeline;perimeter=lifelinePerimeter;whiteSpace=wrap;html=1;container=1;collapsible=0;recursiveResize=0;outlineConnect=0;rounded=1;shadow=0;comic=0;labelBackgroundColor=none;strokeWidth=1;fontFamily=Verdana;fontSize=12;align=center;" parent="1" vertex="1"><mxGeometry x="820" y="80" width="100" height="580" as="geometry"/></mxCell><mxCell id="ubbbVKDdpcfssMySZLUJ-36" value="" style="html=1;points=[];perimeter=orthogonalPerimeter;rounded=0;shadow=0;comic=0;labelBackgroundColor=none;strokeWidth=1;fontFamily=Verdana;fontSize=12;align=center;" parent="7baba1c4bc27f4b0-4" vertex="1"><mxGeometry x="45" y="160" width="10" height="60" as="geometry"/></mxCell><mxCell id="ubbbVKDdpcfssMySZLUJ-39" value="" style="html=1;points=[];perimeter=orthogonalPerimeter;rounded=0;shadow=0;comic=0;labelBackgroundColor=none;strokeWidth=1;fontFamily=Verdana;fontSize=12;align=center;" parent="7baba1c4bc27f4b0-4" vertex="1"><mxGeometry x="45" y="240" width="10" height="50" as="geometry"/></mxCell><mxCell id="7baba1c4bc27f4b0-5" value=":Player1" style="shape=umlLifeline;perimeter=lifelinePerimeter;whiteSpace=wrap;html=1;container=1;collapsible=0;recursiveResize=0;outlineConnect=0;rounded=1;shadow=0;comic=0;labelBackgroundColor=none;strokeWidth=1;fontFamily=Verdana;fontSize=12;align=center;" parent="1" vertex="1"><mxGeometry x="240" y="80" width="120" height="580" as="geometry"/></mxCell><mxCell id="ubbbVKDdpcfssMySZLUJ-42" style="edgeStyle=orthogonalEdgeStyle;rounded=0;orthogonalLoop=1;jettySize=auto;html=1;" parent="7baba1c4bc27f4b0-5" source="ubbbVKDdpcfssMySZLUJ-13" target="7baba1c4bc27f4b0-5" edge="1"><mxGeometry relative="1" as="geometry"/></mxCell><mxCell id="ubbbVKDdpcfssMySZLUJ-13" value="" style="html=1;points=[];perimeter=orthogonalPerimeter;rounded=0;shadow=0;comic=0;labelBackgroundColor=none;strokeWidth=1;fontFamily=Verdana;fontSize=12;align=center;" parent="7baba1c4bc27f4b0-5" vertex="1"><mxGeometry x="55" y="70" width="10" height="360" as="geometry"/></mxCell><mxCell id="7baba1c4bc27f4b0-6" value=":Player2" style="shape=umlLifeline;perimeter=lifelinePerimeter;whiteSpace=wrap;html=1;container=1;collapsible=0;recursiveResize=0;outlineConnect=0;rounded=1;shadow=0;comic=0;labelBackgroundColor=none;strokeWidth=1;fontFamily=Verdana;fontSize=12;align=center;" parent="1" vertex="1"><mxGeometry x="400" y="80" width="100" height="580" as="geometry"/></mxCell><mxCell id="7baba1c4bc27f4b0-7" value=":Object" style="shape=umlLifeline;perimeter=lifelinePerimeter;whiteSpace=wrap;html=1;container=1;collapsible=0;recursiveResize=0;outlineConnect=0;rounded=1;shadow=0;comic=0;labelBackgroundColor=none;strokeWidth=1;fontFamily=Verdana;fontSize=12;align=center;" parent="1" vertex="1"><mxGeometry x="960" y="80" width="100" height="580" as="geometry"/></mxCell><mxCell id="7baba1c4bc27f4b0-8" value=":Game" style="shape=umlLifeline;perimeter=lifelinePerimeter;whiteSpace=wrap;html=1;container=1;collapsible=0;recursiveResize=0;outlineConnect=0;rounded=1;shadow=0;comic=0;labelBackgroundColor=none;strokeWidth=1;fontFamily=Verdana;fontSize=12;align=center;" parent="1" vertex="1"><mxGeometry x="100" y="80" width="100" height="580" as="geometry"/></mxCell><mxCell id="7baba1c4bc27f4b0-9" value="" style="html=1;points=[];perimeter=orthogonalPerimeter;rounded=0;shadow=0;comic=0;labelBackgroundColor=none;strokeWidth=1;fontFamily=Verdana;fontSize=12;align=center;" parent="7baba1c4bc27f4b0-8" vertex="1"><mxGeometry x="45" y="70" width="10" height="470" as="geometry"/></mxCell><mxCell id="7baba1c4bc27f4b0-40" value="Note" style="shape=note;whiteSpace=wrap;html=1;size=14;verticalAlign=top;align=left;spacingTop=-6;rounded=0;shadow=0;comic=0;labelBackgroundColor=none;strokeWidth=1;fontFamily=Verdana;fontSize=12" parent="1" vertex="1"><mxGeometry x="100" y="30" width="100" height="35" as="geometry"/></mxCell><mxCell id="7baba1c4bc27f4b0-41" value="Note" style="shape=note;whiteSpace=wrap;html=1;size=14;verticalAlign=top;align=left;spacingTop=-6;rounded=0;shadow=0;comic=0;labelBackgroundColor=none;strokeWidth=1;fontFamily=Verdana;fontSize=12" parent="1" vertex="1"><mxGeometry x="240" y="30" width="100" height="35" as="geometry"/></mxCell><mxCell id="7baba1c4bc27f4b0-42" value="Note" style="shape=note;whiteSpace=wrap;html=1;size=14;verticalAlign=top;align=left;spacingTop=-6;rounded=0;shadow=0;comic=0;labelBackgroundColor=none;strokeWidth=1;fontFamily=Verdana;fontSize=12" parent="1" vertex="1"><mxGeometry x="400" y="30" width="100" height="35" as="geometry"/></mxCell><mxCell id="7baba1c4bc27f4b0-43" value="Note" style="shape=note;whiteSpace=wrap;html=1;size=14;verticalAlign=top;align=left;spacingTop=-6;rounded=0;shadow=0;comic=0;labelBackgroundColor=none;strokeWidth=1;fontFamily=Verdana;fontSize=12" parent="1" vertex="1"><mxGeometry x="540" y="30" width="100" height="35" as="geometry"/></mxCell><mxCell id="7baba1c4bc27f4b0-44" value="Note" style="shape=note;whiteSpace=wrap;html=1;size=14;verticalAlign=top;align=left;spacingTop=-6;rounded=0;shadow=0;comic=0;labelBackgroundColor=none;strokeWidth=1;fontFamily=Verdana;fontSize=12" parent="1" vertex="1"><mxGeometry x="680" y="30" width="100" height="35" as="geometry"/></mxCell><mxCell id="7baba1c4bc27f4b0-45" value="Note" style="shape=note;whiteSpace=wrap;html=1;size=14;verticalAlign=top;align=left;spacingTop=-6;rounded=0;shadow=0;comic=0;labelBackgroundColor=none;strokeWidth=1;fontFamily=Verdana;fontSize=12" parent="1" vertex="1"><mxGeometry x="820" y="30" width="100" height="35" as="geometry"/></mxCell><mxCell id="7baba1c4bc27f4b0-46" value="Note" style="shape=note;whiteSpace=wrap;html=1;size=14;verticalAlign=top;align=left;spacingTop=-6;rounded=0;shadow=0;comic=0;labelBackgroundColor=none;strokeWidth=1;fontFamily=Verdana;fontSize=12" parent="1" vertex="1"><mxGeometry x="960" y="30" width="100" height="35" as="geometry"/></mxCell><mxCell id="ubbbVKDdpcfssMySZLUJ-14" value="" style="edgeStyle=orthogonalEdgeStyle;rounded=0;orthogonalLoop=1;jettySize=auto;html=1;" parent="1" source="7baba1c4bc27f4b0-9" target="ubbbVKDdpcfssMySZLUJ-13" edge="1"><mxGeometry relative="1" as="geometry"><Array as="points"><mxPoint x="200" y="190"/><mxPoint x="200" y="190"/></Array></mxGeometry></mxCell><mxCell id="ubbbVKDdpcfssMySZLUJ-18" value="" style="edgeStyle=orthogonalEdgeStyle;rounded=0;orthogonalLoop=1;jettySize=auto;html=1;" parent="1" source="ubbbVKDdpcfssMySZLUJ-13" target="ubbbVKDdpcfssMySZLUJ-17" edge="1"><mxGeometry relative="1" as="geometry"><Array as="points"><mxPoint x="520" y="200"/><mxPoint x="520" y="200"/></Array></mxGeometry></mxCell><mxCell id="ubbbVKDdpcfssMySZLUJ-26" value="" style="edgeStyle=orthogonalEdgeStyle;rounded=0;orthogonalLoop=1;jettySize=auto;html=1;" parent="1" source="ubbbVKDdpcfssMySZLUJ-17" target="ubbbVKDdpcfssMySZLUJ-25" edge="1"><mxGeometry relative="1" as="geometry"/></mxCell><mxCell id="ubbbVKDdpcfssMySZLUJ-25" value="" style="html=1;points=[];perimeter=orthogonalPerimeter;rounded=0;shadow=0;comic=0;labelBackgroundColor=none;strokeWidth=1;fontFamily=Verdana;fontSize=12;align=center;" parent="1" vertex="1"><mxGeometry x="740" y="180" width="10" height="50" as="geometry"/></mxCell><mxCell id="ubbbVKDdpcfssMySZLUJ-29" value="Place card in handCards" style="text;html=1;align=center;verticalAlign=middle;resizable=0;points=[];autosize=1;strokeColor=none;fillColor=none;" parent="1" vertex="1"><mxGeometry x="595" y="187" width="150" height="20" as="geometry"/></mxCell><mxCell id="ubbbVKDdpcfssMySZLUJ-30" value="&lt;span style=&quot;font-size: 11px ; background-color: rgb(255 , 255 , 255)&quot;&gt;Get card from deck&lt;/span&gt;" style="text;html=1;align=center;verticalAlign=middle;resizable=0;points=[];autosize=1;strokeColor=none;fillColor=none;" parent="1" vertex="1"><mxGeometry x="325" y="180" width="110" height="20" as="geometry"/></mxCell><mxCell id="ubbbVKDdpcfssMySZLUJ-31" value="&lt;span style=&quot;font-size: 11px ; background-color: rgb(255 , 255 , 255)&quot;&gt;Turn 2&lt;/span&gt;" style="text;html=1;align=center;verticalAlign=middle;resizable=0;points=[];autosize=1;strokeColor=none;fillColor=none;" parent="1" vertex="1"><mxGeometry x="185" y="170" width="50" height="20" as="geometry"/></mxCell><mxCell id="ubbbVKDdpcfssMySZLUJ-33" value="" style="edgeStyle=orthogonalEdgeStyle;rounded=0;orthogonalLoop=1;jettySize=auto;html=1;" parent="1" source="ubbbVKDdpcfssMySZLUJ-13" target="ubbbVKDdpcfssMySZLUJ-32" edge="1"><mxGeometry relative="1" as="geometry"><Array as="points"><mxPoint x="440" y="270"/><mxPoint x="440" y="270"/></Array></mxGeometry></mxCell><mxCell id="ubbbVKDdpcfssMySZLUJ-34" value="Play land" style="text;html=1;align=center;verticalAlign=middle;resizable=0;points=[];autosize=1;strokeColor=none;fillColor=none;" parent="1" vertex="1"><mxGeometry x="450" y="250" width="60" height="20" as="geometry"/></mxCell><mxCell id="ubbbVKDdpcfssMySZLUJ-37" value="" style="edgeStyle=orthogonalEdgeStyle;rounded=0;orthogonalLoop=1;jettySize=auto;html=1;" parent="1" source="ubbbVKDdpcfssMySZLUJ-32" target="ubbbVKDdpcfssMySZLUJ-36" edge="1"><mxGeometry relative="1" as="geometry"/></mxCell><mxCell id="ubbbVKDdpcfssMySZLUJ-38" value="Set land card to floor" style="text;html=1;align=center;verticalAlign=middle;resizable=0;points=[];autosize=1;strokeColor=none;fillColor=none;" parent="1" vertex="1"><mxGeometry x="740" y="250" width="130" height="20" as="geometry"/></mxCell><mxCell id="ubbbVKDdpcfssMySZLUJ-40" value="" style="edgeStyle=orthogonalEdgeStyle;rounded=0;orthogonalLoop=1;jettySize=auto;html=1;exitX=-0.014;exitY=0.809;exitDx=0;exitDy=0;exitPerimeter=0;" parent="1" source="ubbbVKDdpcfssMySZLUJ-13" target="ubbbVKDdpcfssMySZLUJ-39" edge="1"><mxGeometry relative="1" as="geometry"><Array as="points"><mxPoint x="295" y="345"/></Array></mxGeometry></mxCell><mxCell id="ubbbVKDdpcfssMySZLUJ-41" value="Take 2 energy from land cards" style="text;html=1;align=center;verticalAlign=middle;resizable=0;points=[];autosize=1;strokeColor=none;fillColor=none;" parent="1" vertex="1"><mxGeometry x="440" y="320" width="180" height="20" as="geometry"/></mxCell></root></mxGraphModel></diagram></mxfile>